<svg xmlns="http://www.w3.org/2000/svg" viewBox="42 48 420 410">
  <defs>
    <filter id="softShadow" x="-20%" y="-20%" width="140%" height="140%">
      <feDropShadow dx="0" dy="8" stdDeviation="8" flood-color="#000000" flood-opacity=".22"/>
    </filter>
  </defs>

  <g filter="url(#softShadow)">
    <rect x="359" y="124" width="70" height="80" rx="18" fill="#dd602a"/>
    <rect x="359" y="215" width="70" height="80" rx="18" fill="#ebb230"/>
    <rect x="359" y="306" width="70" height="80" rx="18" fill="#7f9660"/>

    <rect x="101" y="75" width="280" height="341" rx="30" fill="#fff8e6" stroke="#ddcda9" stroke-width="3"/>
    <line x1="142" y1="88" x2="142" y2="403" stroke="#d7c59d" stroke-width="3"/>

    <g fill="#2c442a">
      <rect x="70" y="122" width="79" height="20" rx="9"/>
      <rect x="70" y="193" width="79" height="20" rx="9"/>
      <rect x="70" y="264" width="79" height="20" rx="9"/>
      <rect x="70" y="335" width="79" height="20" rx="9"/>
    </g>

    <path d="M247 217 C199 170 215 133 247 151 C279 133 295 170 247 217Z" fill="#dd602a"/>

    <rect x="188" y="250" width="118" height="14" rx="7" fill="#ac976b"/>
    <rect x="188" y="294" width="142" height="14" rx="7" fill="#ac976b"/>
    <rect x="188" y="338" width="105" height="14" rx="7" fill="#ac976b"/>
  </g>
</svg>
